<?xml version="1.0" encoding="UTF-8" standalone="no"?>
<!-- Created with Inkscape (http://www.inkscape.org/) -->

<svg
   xmlns:dc="http://purl.org/dc/elements/1.1/"
   xmlns:cc="http://creativecommons.org/ns#"
   xmlns:rdf="http://www.w3.org/1999/02/22-rdf-syntax-ns#"
   xmlns:svg="http://www.w3.org/2000/svg"
   xmlns="http://www.w3.org/2000/svg"
   xmlns:sodipodi="http://sodipodi.sourceforge.net/DTD/sodipodi-0.dtd"
   xmlns:inkscape="http://www.inkscape.org/namespaces/inkscape"
   version="1.1"
   id="svg10"
   width="682.66669"
   height="682.66669"
   viewBox="0 0 682.66669 682.66669"
   sodipodi:docname="badminton.svg"
   inkscape:version="0.92.4 (5da689c313, 2019-01-14)">
  <metadata
     id="metadata16">
    <rdf:RDF>
      <cc:Work
         rdf:about="">
        <dc:format>image/svg+xml</dc:format>
        <dc:type
           rdf:resource="http://purl.org/dc/dcmitype/StillImage" />
        <dc:title></dc:title>
      </cc:Work>
    </rdf:RDF>
  </metadata>
  <defs
     id="defs14" />
  <sodipodi:namedview
     pagecolor="#ffffff"
     bordercolor="#666666"
     borderopacity="1"
     objecttolerance="10"
     gridtolerance="10"
     guidetolerance="10"
     inkscape:pageopacity="0"
     inkscape:pageshadow="2"
     inkscape:window-width="640"
     inkscape:window-height="480"
     id="namedview12"
     showgrid="false"
     inkscape:zoom="0.24444902"
     inkscape:cx="134.27891"
     inkscape:cy="99.931861"
     inkscape:window-x="2128"
     inkscape:window-y="509"
     inkscape:window-maximized="0"
     inkscape:current-layer="svg10" />
  <path
     style="fill:#000000;stroke-width:1.33333337"
     d="m 105.33334,677.37451 c -44.673326,-5.87948 -81.162306,-38.8454 -93.510414,-84.48184 -4.0869115,-15.10451 -4.0826135,-40.92561 0.0093,-56 6.9112,-25.46036 14.120189,-35.97124 48.714111,-71.02631 30.601138,-31.00907 33.432258,-32.9757 42.184413,-29.30316 2.99035,1.25478 29.41129,27.10979 75.42644,73.81079 74.37843,75.48705 74.3394,75.44101 71.16669,83.95372 -1.72177,4.61968 -44.55969,48.21639 -58.09343,59.12244 -23.18278,18.68164 -56.09056,27.84723 -85.89713,23.92436 z m 94.66975,-192.47876 -84.65572,-84.66359 10.77071,-10.7707 10.7707,-10.7707 4.11697,3.4642 4.11697,3.4642 26.93469,-45.02991 c 14.81408,-24.76646 27.40796,-45.54642 27.9864,-46.17768 1.01296,-1.10547 26.62286,13.05333 26.62286,14.71882 0,0.44944 -13.57492,22.95147 -30.16648,50.0045 l -30.16649,49.18733 5.16649,4.56306 c 2.84156,2.50968 5.53608,4.58802 5.9878,4.61854 0.45174,0.0305 15.64363,-18.54449 33.75979,-41.27782 18.11615,-22.73334 33.26032,-41.33334 33.65374,-41.33334 1.05589,0 23.09849,17.35642 23.09849,18.18783 0,0.39036 -14.44544,19.33869 -32.10099,42.10741 -17.65553,22.76872 -32.79865,42.51483 -33.65136,43.88024 -1.32745,2.12558 -0.73695,3.29602 4.10647,8.13943 l 5.65686,5.65687 38.66011,-38.64287 38.66011,-38.64287 10.32472,10.32471 10.32471,10.32472 -38.64287,38.66011 -38.64287,38.66011 5.65687,5.65686 c 4.84341,4.84342 6.01385,5.43392 8.13943,4.10647 1.36541,-0.85271 21.11152,-15.99583 43.88024,-33.65136 22.76872,-17.65555 41.71705,-32.10099 42.10741,-32.10099 0.83141,0 18.18783,22.0426 18.18783,23.09849 0,0.39342 -18.6,15.53759 -41.33334,33.65374 -22.73333,18.11616 -41.30836,33.30805 -41.27782,33.75979 0.0305,0.45172 2.10886,3.14624 4.61854,5.9878 l 4.56306,5.16649 49.18733,-30.16649 c 27.05303,-16.59156 49.55506,-30.16648 50.0045,-30.16648 1.65998,0 15.82598,25.60778 14.71882,26.60712 -0.63126,0.56978 -21.40462,13.17149 -46.16302,28.00381 l -45.01526,26.96784 3.44044,4.08874 3.44043,4.08872 -10.3939,10.45522 c -5.71664,5.75036 -10.70974,10.45522 -11.09577,10.45522 -0.38604,0 -38.79696,-38.09862 -85.3576,-84.66359 z m 212.4399,-25.87307 c -4.52304,-0.43817 -8.63623,-1.20987 -9.14042,-1.71487 -0.5042,-0.505 -0.50968,-4.42526 -0.012,-8.71169 l 0.90454,-7.7935 98.0838,-67.2883 c 53.94608,-37.00858 98.75975,-67.68841 99.58592,-68.17739 1.71716,-1.01634 71.60269,-8.08808 72.36783,-7.32294 0.27598,0.27599 -4.39702,10.75979 -10.38442,23.29735 l -10.8862,22.79557 -109.79778,58.05955 c -121.2671,64.12435 -109.3227,58.92922 -130.72109,56.85622 z m -50.29124,-45.10255 -3.84828,-0.57297 0.88365,-9.56059 c 0.74107,-8.01797 1.46956,-10.12791 4.51493,-13.07671 16.77419,-16.24226 173.36432,-153.63784 176.09734,-154.51164 5.32215,-1.70156 62.73699,-11.21364 63.44031,-10.51032 0.33608,0.33608 -3.74123,12.42042 -9.06068,26.85411 l -9.67175,26.24305 -99.25363,68.05058 -99.25363,68.05058 -10,-0.19656 c -5.5,-0.10813 -11.73172,-0.45438 -13.84826,-0.76953 z m -47.40387,-55.3608 0.0812,-12.33333 78.9188,-88.57637 78.9188,-88.57636 29.33334,-7.61512 c 16.13333,-4.18832 29.41949,-7.52895 29.52481,-7.42364 0.10533,0.10533 -3.25633,13.37763 -7.47033,29.49401 l -7.66183,29.30254 -11.19632,10.11562 c -6.15799,5.5636 -46.11468,41.12746 -88.79267,79.03081 l -77.59634,68.91517 h -12.07033 -12.07033 z m -43.19739,-36.49402 c -0.46996,-2.84496 -0.86107,-9.07904 -0.86913,-13.85352 l -0.0147,-8.68088 61.70186,-90.65245 c 33.93603,-49.85886 64.52127,-94.50225 67.96722,-99.20753 l 6.26535,-8.55505 26.32964,-9.703645 c 14.48131,-5.337 26.59919,-9.4341 26.92863,-9.10466 0.691,0.691 -8.82252,58.146105 -10.50656,63.452375 -0.86699,2.73182 -138.20968,159.27007 -154.50334,176.09734 -2.94163,3.03796 -5.06252,3.7742 -12.98032,4.50597 l -9.4642,0.87469 z m -43.99195,-41.34954 c -0.39625,-1.36938 -1.12227,-8.23152 -1.61336,-15.2492 l -0.89288,-12.75944 58.19543,-110.05261 58.19544,-110.052605 22.8002,-10.88841 c 12.54011,-5.98862 23.02718,-10.66143 23.30458,-10.38402 0.55082,0.55082 -5.94014,68.67967 -6.76194,70.97304 -0.37756,1.05362 -134.7376,197.601885 -135.91332,198.820465 -0.12227,0.12667 -3.9058,0.64708 -8.40795,1.15644 -7.29489,0.82532 -8.26413,0.65515 -8.9062,-1.56366 z"
     id="path20"
     inkscape:connector-curvature="0" />
</svg>
