<?xml version="1.0" encoding="UTF-8" standalone="no"?>
<!-- Created with Inkscape (http://www.inkscape.org/) -->

<svg
   xmlns:dc="http://purl.org/dc/elements/1.1/"
   xmlns:cc="http://creativecommons.org/ns#"
   xmlns:rdf="http://www.w3.org/1999/02/22-rdf-syntax-ns#"
   xmlns:svg="http://www.w3.org/2000/svg"
   xmlns="http://www.w3.org/2000/svg"
   xmlns:sodipodi="http://sodipodi.sourceforge.net/DTD/sodipodi-0.dtd"
   xmlns:inkscape="http://www.inkscape.org/namespaces/inkscape"
   width="300"
   height="300"
   viewBox="0 0 79.374998 79.375002"
   version="1.1"
   id="svg28"
   inkscape:version="0.92.4 (5da689c313, 2019-01-14)"
   sodipodi:docname="mendeley.svg">
  <defs
     id="defs22" />
  <sodipodi:namedview
     id="base"
     pagecolor="#ffffff"
     bordercolor="#666666"
     borderopacity="1.0"
     inkscape:pageopacity="0.0"
     inkscape:pageshadow="2"
     inkscape:zoom="1.4"
     inkscape:cx="276.33663"
     inkscape:cy="146.80494"
     inkscape:document-units="mm"
     inkscape:current-layer="layer1"
     showgrid="false"
     units="px"
     inkscape:window-width="1600"
     inkscape:window-height="837"
     inkscape:window-x="-8"
     inkscape:window-y="-8"
     inkscape:window-maximized="1" />
  <metadata
     id="metadata25">
    <rdf:RDF>
      <cc:Work
         rdf:about="">
        <dc:format>image/svg+xml</dc:format>
        <dc:type
           rdf:resource="http://purl.org/dc/dcmitype/StillImage" />
        <dc:title></dc:title>
      </cc:Work>
    </rdf:RDF>
  </metadata>
  <g
     inkscape:label="Calque 1"
     inkscape:groupmode="layer"
     id="layer1"
     transform="translate(0,-217.62498)">
    <path
       style="fill:#000000;stroke-width:0.34530097"
       d="m 5.9551731,278.21556 c -2.8294198,-1.03554 -5.01362308,-4.24696 -5.00875498,-7.36433 0.00667,-4.26221 2.85319708,-6.99073 7.68093548,-7.36244 4.1373674,-0.31857 5.2666694,-1.75599 5.2222424,-6.64707 -0.01553,-1.70925 -0.28397,-4.09142 -0.596548,-5.29372 -1.310773,-5.04182 -0.399128,-9.58812 2.502532,-12.4799 2.454,-2.44565 4.444895,-3.26355 7.978776,-3.27785 4.280489,-0.0173 6.066963,0.93632 9.691024,5.17324 5.276544,6.16885 7.737669,6.16044 12.829857,-0.0439 3.387916,-4.12784 6.393997,-5.60587 10.62174,-5.2225 5.155544,0.46747 9.079618,4.1593 10.06043,9.46501 0.297025,1.60677 0.229688,2.52666 -0.409409,5.59279 -1.896828,9.10018 -0.456034,12.77199 5.030542,12.82019 1.868865,0.0165 4.136194,0.88644 5.080001,1.94932 1.32254,1.4894 2.092739,3.94116 1.901296,6.05238 -0.458062,5.05163 -4.92992,8.21512 -9.477534,6.70465 -4.182697,-1.38927 -5.891887,-5.58046 -4.237132,-10.39009 0.812259,-2.36086 0.864354,-3.58537 0.217152,-5.10427 -2.027797,-4.75905 -12.353925,-5.98916 -16.842,-2.00635 -1.288204,1.14318 -1.450714,1.46615 -1.5881,3.15615 -0.112197,1.38015 0.03996,2.36993 0.570078,3.70828 1.594016,4.02429 0.296707,8.14747 -3.126258,9.93608 -6.907629,3.60943 -14.808726,-2.91248 -11.739003,-9.68989 1.41254,-3.11865 1.205918,-5.12257 -0.720416,-6.98697 -1.56172,-1.51151 -3.430448,-2.20915 -6.474956,-2.41723 -5.105629,-0.34896 -9.099284,1.28259 -10.413877,4.25445 -0.747449,1.68972 -0.671468,3.30487 0.260385,5.53511 0.701167,1.67814 0.608287,4.7408 -0.191302,6.30814 -1.262479,2.47467 -4.030827,4.2234 -6.5810609,4.15722 -0.4747896,-0.0118 -1.4830775,-0.24926 -2.24064,-0.52652 z M 42.898559,262.58557 c 1.890485,-0.86099 3.746913,-3.01973 4.302112,-5.0027 1.290185,-4.60809 -2.51416,-9.535 -7.369758,-9.5444 -4.123226,-0.008 -7.57339,3.4519 -7.57339,7.5947 0,5.48522 5.694003,9.20546 10.641036,6.9524 z"
       id="path41"
       inkscape:connector-curvature="0" />
  </g>
</svg>
