<?xml version="1.0" encoding="UTF-8" standalone="no"?>
<!-- Created with Inkscape (http://www.inkscape.org/) -->

<svg
   xmlns:dc="http://purl.org/dc/elements/1.1/"
   xmlns:cc="http://creativecommons.org/ns#"
   xmlns:rdf="http://www.w3.org/1999/02/22-rdf-syntax-ns#"
   xmlns:svg="http://www.w3.org/2000/svg"
   xmlns="http://www.w3.org/2000/svg"
   xmlns:sodipodi="http://sodipodi.sourceforge.net/DTD/sodipodi-0.dtd"
   xmlns:inkscape="http://www.inkscape.org/namespaces/inkscape"
   version="1.1"
   id="svg49"
   width="1440"
   height="1440"
   viewBox="0 0 1440 1440"
   sodipodi:docname="slack.svg"
   inkscape:version="0.92.4 (5da689c313, 2019-01-14)">
  <metadata
     id="metadata55">
    <rdf:RDF>
      <cc:Work
         rdf:about="">
        <dc:format>image/svg+xml</dc:format>
        <dc:type
           rdf:resource="http://purl.org/dc/dcmitype/StillImage" />
        <dc:title></dc:title>
      </cc:Work>
    </rdf:RDF>
  </metadata>
  <defs
     id="defs53" />
  <sodipodi:namedview
     pagecolor="#ffffff"
     bordercolor="#666666"
     borderopacity="1"
     objecttolerance="10"
     gridtolerance="10"
     guidetolerance="10"
     inkscape:pageopacity="0"
     inkscape:pageshadow="2"
     inkscape:window-width="716"
     inkscape:window-height="480"
     id="namedview51"
     showgrid="false"
     inkscape:zoom="0.18945312"
     inkscape:cx="817.73609"
     inkscape:cy="720"
     inkscape:window-x="1924"
     inkscape:window-y="403"
     inkscape:window-maximized="0"
     inkscape:current-layer="svg49" />
  <path
     style="fill:#000000;stroke-width:1.33333337"
     d="m 517.66571,1430.5427 c -54.1437,-9.1636 -99.1951,-47.6164 -116.7151,-99.62 -7.974,-23.6689 -7.5971,-13.5808 -8.1566,-218.366 -0.3487,-127.65022 -0.05,-193.65802 0.9308,-205.62552 3.1895,-38.921 17.8975,-70.4029 45.1766,-96.6986 46.2588,-44.59107 109.9977,-54.35724 167.6014,-25.68012 42.9304,21.3722 72.6926,62.78502 80.011,111.33202 2.8883,19.1593 2.834,390.54452 -0.06,409.74352 -4.9406,32.7777 -18.201,58.6146 -42.6004,83.0028 -22.8964,22.8862 -46.1685,35.3228 -77.2115,41.2624 -10.9941,2.1035 -38.2496,2.465 -48.9762,0.6495 z m 370.6667,0.077 c -32.2691,-5.8697 -60.9095,-21.0278 -82.8241,-43.8353 -20.2876,-21.1139 -31.6887,-41.9745 -38.7467,-70.8947 -2.6114,-10.7005 -2.7953,-15.8984 -3.2939,-93.0961 -0.3986,-61.7246 -0.1408,-82.2295 1.052,-83.6667 1.335,-1.6086 13.2957,-1.9038 77.1184,-1.9038 43.8584,0 80.1328,0.576 86.4934,1.3736 65.2241,8.1784 117.93499,59.0654 128.40269,123.9597 2.0022,12.4127 1.6807,34.7812 -0.693,48.2161 -8.1006,45.8471 -39.046,86.3086 -81.61839,106.7162 -20.5656,9.8585 -35.4883,13.3082 -59.7829,13.8204 -11,0.2318 -22.7484,-0.079 -26.1075,-0.6894 z m -728.5592,-368.0906 c -19.9379,-1.7491 -36.2542,-6.4214 -54.6667,-15.6542 -36.790704,-18.4484 -65.284904,-53.70252 -76.258104,-94.34952 -3.23937,-11.9994 -3.59665,-15.587 -3.64828,-36.6354 -0.0527,-21.4949 0.23311,-24.3777 3.62788,-36.5896 15.2024,-54.6876 56.196,-94.29101 111.526804,-107.74475 10.7928,-2.62428 15.8979,-2.80532 93.1812,-3.30444 61.7246,-0.39864 82.2295,-0.14081 83.6667,1.05199 1.6098,1.33603 1.8997,13.44611 1.8774,78.4168 -0.015,43.6778 -0.5991,80.8645 -1.3534,86.17 -5.3596,37.6976 -24.8392,72.79362 -52.9729,95.44042 -17.8232,14.347 -36.6278,23.8851 -57.4975,29.1639 -9.0079,2.2784 -13.9157,2.9751 -32.1498,4.5639 -2.5666,0.2236 -9.4666,-0.014 -15.3333,-0.5291 z m 738.2617,-0.084 c -20.7217,-1.8862 -42.877,-8.9268 -60.3906,-19.1913 -28.1652,-16.5071 -52.5683,-44.92922 -63.9774,-74.51402 -15.274,-39.6069 -13.1936,-79.9357 6.1311,-118.8494 20.0328,-40.33985 57.2507,-68.74534 103.3085,-78.84754 10.7803,-2.36452 21.1574,-2.48581 212.66679,-2.48581 191.5093,0 201.8864,0.12133 212.6667,2.48581 29.344,6.43623 51.7112,18.30787 73.1642,38.83287 20.9743,20.06687 33.6647,41.81947 41.727,71.52427 2.6174,9.6439 3.0233,14.3215 2.993,34.4904 -0.032,21.0149 -0.3872,24.6365 -3.579,36.4496 -11.0635,40.9463 -39.3684,76.01362 -76.3052,94.53522 -12.6276,6.332 -26.7258,11.2698 -39.7998,13.9395 -9.8024,2.0017 -29.7413,2.2456 -203.5336,2.4893 -105.96665,0.1486 -198.24889,-0.2379 -205.07169,-0.8589 z M 149.48711,691.17265 c -32.3359,-5.08178 -60.935004,-20.2822 -84.505304,-44.91455 -16.3921,-17.13069 -26.3024,-33.74087 -33.7191,-56.51499 -5.52176,-16.95557 -7.29828,-30.96109 -6.46683,-50.98242 2.82131,-67.93728 51.95413,-124.57466 120.110334,-138.45588 9.7457,-1.98488 30.266,-2.26628 198.867,-2.72708 126.0676,-0.34456 193.7265,-0.0447 205.3831,0.91036 38.4751,3.15222 67.7587,16.34237 94.3751,42.50909 32.1139,31.57141 48.6405,76.25071 43.754,118.28829 -7.6521,65.82862 -51.8452,115.00487 -117.5122,130.76247 -9.3707,2.24861 -22.5446,2.41697 -209.3333,2.6752 -163.2377,0.22567 -201.4374,-0.0551 -210.9528,-1.55049 z m 740,0.0769 c -53.3911,-8.74397 -97.6466,-44.90559 -116.682,-95.34204 -1.8027,-4.77627 -4.5448,-13.78412 -6.0937,-20.01745 -2.7907,-11.23114 -2.8202,-13.10084 -3.2699,-207.33334 -0.4733,-204.4216 -0.393,-207.91362 5.2742,-229.33333 13.4708,-50.914298 54.379,-91.754538 105.7555,-105.579938 11.8765,-3.19597 15.7311,-3.58888 35.9687,-3.66648 19.7641,-0.0758 24.2033,0.31797 34.6666,3.07493 26.9476,7.10033 51.05684,20.88266 69.97229,40.00037 26.0398,26.31848 39.5756,56.545258 42.7673,95.504408 2.0447,24.9578 0.9213,390.44636 -1.2328,401.08192 -4.0297,19.89684 -12.6263,40.98054 -23.4792,57.58479 -8.6237,13.19384 -32.8493,36.23648 -46.60059,44.32501 -29.729,17.48676 -65.8246,24.81443 -97.0464,19.70115 z m 244.43449,0.15255 c -1.28,-1.5423 -1.5412,-20.3691 -1.1712,-84.41519 l 0.476,-82.43019 3.4704,-12.76502 c 8.0389,-29.56952 19.0112,-48.76283 39.6232,-69.3116 19.6401,-19.57984 35.4104,-29.43242 59.4533,-37.1439 17.9531,-5.75821 29.9656,-7.26409 51.018,-6.39549 37.7011,1.55549 69.3889,15.44937 96.41,42.27195 22.5745,22.4086 36.0319,47.93706 42.0304,79.73098 3.1995,16.95762 1.9697,44.51784 -2.7491,61.61308 -14.696,53.24095 -56.8493,93.7456 -111.376,107.01975 -10.6934,2.60325 -15.9686,2.78871 -93.4354,3.28483 -71.5144,0.45798 -82.3146,0.26981 -83.7496,-1.4592 z M 521.13341,322.40378 c -23.1968,-3.378 -50.0158,-14.39849 -68.0269,-27.95369 -30.94,-23.28558 -51.9808,-57.98515 -58.0745,-95.77414 -1.9817,-12.2888 -1.6584,-34.9332 0.6901,-48.33538 9.7321,-55.537888 53.132,-102.234438 108.4434,-116.680638 15.9169,-4.15718 41.3659,-5.55853 57.6648,-3.17532 20.1195,2.94186 43.0898,11.87084 61.0542,23.73281 10.1007,6.66961 28.0995,24.04867 36.1339,34.88972 14.2385,19.212688 23.8206,42.395828 27.4355,66.378248 2.6106,17.31932 2.9505,164.2401 0.386,166.80464 -1.9165,1.91648 -152.6168,2.01992 -165.7065,0.11374 z"
     id="path59"
     inkscape:connector-curvature="0" />
</svg>
